<svg width="71" height="72" viewBox="0 0 71 72" fill="none" xmlns="http://www.w3.org/2000/svg">
<path d="M53.501 46.7825C49.8794 52.647 43.3877 56.567 36 56.567C24.6621 56.567 15.4331 47.3381 15.4331 36C15.4331 24.6619 24.6621 15.433 36 15.433C20.3799 15.433 7.7168 28.0959 7.7168 43.7165C7.7168 58.848 19.5991 71.2042 34.542 71.963C35.0264 71.9824 35.5112 72 36 72C52.0918 72 65.7549 61.3821 70.354 46.7825H53.501Z" fill="#2864EC"/>
<path d="M7.7168 43.7165C7.7168 28.096 20.3799 15.433 36 15.433C42.8218 15.433 48.8711 18.7665 52.6162 23.8902H69.9014C64.9219 9.97998 51.5977 0 36 0C16.1533 0 0 16.1429 0 36C0 55.3578 15.3691 71.1941 34.542 71.963C19.5991 71.2042 7.7168 58.848 7.7168 43.7165Z" fill="#2864EC"/>
<path opacity="0.69" d="M53.501 46.7825C49.8794 52.647 43.3877 56.567 36 56.567C24.6621 56.567 15.4331 47.3381 15.4331 36C15.4331 24.6619 24.6621 15.433 36 15.433C20.3799 15.433 7.7168 28.0959 7.7168 43.7165C7.7168 58.848 19.5991 71.2042 34.542 71.963C35.0264 71.9824 35.5112 72 36 72C52.0918 72 65.7549 61.3821 70.354 46.7825H53.501Z" fill="url(#paint0_radial_7_111)"/>
<defs>
<radialGradient id="paint0_radial_7_111" cx="0" cy="0" r="1" gradientUnits="userSpaceOnUse" gradientTransform="translate(61.4844 50.9842) scale(53.6374 53.6374)">
<stop stop-opacity="0"/>
<stop offset="0.36392" stop-opacity="0.32753"/>
<stop offset="0.66684" stop-opacity="0.60015"/>
<stop offset="0.94705" stop-opacity="0.85235"/>
<stop offset="1" stop-opacity="0.9"/>
</radialGradient>
</defs>
</svg>
